<svg xmlns="http://www.w3.org/2000/svg" xmlns:xlink="http://www.w3.org/1999/xlink" width="162" height="47" viewBox="0 0 162 47">
    <defs>
        <path id="prefix__a" d="M0.001 0.202L161.36 0.202 161.36 46.93 0.001 46.93z"/>
        <path id="prefix__c" d="M0 46.729L351.792 46.729 351.792 0 0 0z"/>
    </defs>
    <g fill="none" fill-rule="evenodd" transform="translate(0 -.161)">
        <mask id="prefix__b" fill="#fff">
            <use xlink:href="#prefix__a"/>
        </mask>
        <path fill="#434449" d="M20.093 46.93C8.997 46.93.001 37.934.001 26.838v-6.544C0 9.198 8.997.202 20.093.202h121.173c11.096 0 20.094 8.996 20.094 20.092v6.544c0 11.096-8.998 20.092-20.094 20.092H20.093z" mask="url(#prefix__b)"/>
        <g mask="url(#prefix__b)">
            <g transform="translate(0 .202)">
                <path fill="#FEFEFE" d="M34.414 24.349c-.037-3.912 3.203-5.815 3.35-5.905-1.832-2.675-4.677-3.04-5.674-3.067-2.39-.253-4.704 1.428-5.922 1.428-1.238 0-3.114-1.403-5.132-1.363-2.597.041-5.027 1.545-6.36 3.88-2.75 4.762-.7 11.759 1.937 15.609 1.318 1.883 2.858 3.989 4.874 3.916 1.971-.084 2.708-1.26 5.09-1.26 2.358 0 3.05 1.26 5.106 1.213 2.116-.037 3.45-1.894 4.722-3.798 1.524-2.16 2.134-4.289 2.159-4.397-.049-.016-4.11-1.567-4.15-6.256M30.529 12.845c1.061-1.327 1.785-3.133 1.585-4.965-1.536.07-3.456 1.061-4.562 2.36-.977 1.144-1.853 3.019-1.626 4.78 1.724.128 3.495-.87 4.603-2.175M55.022 17.011L55.022 11.637 53.053 11.637 53.053 10.753 57.959 10.753 57.959 11.637 55.996 11.637 55.996 17.011zM59.87 11.497l1.09-1.491h1.09l-1.217 1.491h-.963zm-.67 2.716h2.388c-.023-.74-.474-1.224-1.163-1.224-.69 0-1.172.488-1.225 1.224zm3.281 1.522c-.212.847-.967 1.368-2.048 1.368-1.353 0-2.181-.929-2.181-2.439s.846-2.469 2.177-2.469c1.314 0 2.108.9 2.108 2.383v.325H59.2v.053c.033.828.513 1.353 1.26 1.353.562 0 .95-.204 1.124-.574h.897z"/>
                <mask id="prefix__d" fill="#fff">
                    <use xlink:href="#prefix__c"/>
                </mask>
                <path fill="#FEFEFE" d="M63.832 17.011L64.764 17.011 64.764 10.443 63.832 10.443zM67.678 11.497l1.09-1.491h1.091l-1.218 1.491h-.963zm-.667 2.716h2.385c-.02-.74-.471-1.224-1.163-1.224-.69 0-1.171.488-1.222 1.224zm3.279 1.522c-.213.847-.968 1.368-2.047 1.368-1.355 0-2.183-.929-2.183-2.439s.847-2.469 2.179-2.469c1.314 0 2.108.9 2.108 2.383v.325H67.01v.053c.03.828.512 1.353 1.257 1.353.565 0 .95-.204 1.124-.574h.898zM74.69 13.83c-.107-.458-.49-.801-1.115-.801-.782 0-1.26.598-1.26 1.606 0 1.024.482 1.634 1.26 1.634.59 0 .993-.27 1.116-.777h.906c-.123.95-.851 1.612-2.016 1.612-1.377 0-2.218-.93-2.218-2.47 0-1.513.837-2.438 2.212-2.438 1.185 0 1.9.69 2.022 1.635h-.906zM76.835 10.443h.924v2.604h.074c.23-.53.728-.847 1.44-.847 1.006 0 1.627.639 1.627 1.761v3.05h-.933v-2.82c0-.754-.35-1.136-1.01-1.136-.765 0-1.19.482-1.19 1.198v2.759h-.932v-6.569zM85.108 15.271v-.393l-1.153.073c-.65.043-.946.265-.946.682 0 .424.369.67.875.67.704 0 1.224-.446 1.224-1.032m-3.036.404c0-.85.633-1.34 1.757-1.41l1.28-.073v-.408c0-.5-.331-.782-.968-.782-.52 0-.881.192-.985.527h-.902c.096-.812.859-1.333 1.93-1.333 1.183 0 1.853.59 1.853 1.588v3.228h-.898v-.665h-.074c-.281.473-.797.742-1.418.742-.912 0-1.575-.55-1.575-1.414M87.497 12.287h.897v.725h.07c.135-.465.659-.804 1.275-.804.139 0 .316.014.416.039v.922c-.077-.029-.355-.057-.52-.057-.706 0-1.206.447-1.206 1.11v2.79h-.932v-4.725zM94.323 14.59c0-.94-.487-1.543-1.281-1.543-.802 0-1.253.602-1.253 1.543 0 .94.451 1.545 1.253 1.545.8 0 1.281-.598 1.281-1.545m-3.311 2.893h.955c.08.343.473.566 1.102.566.777 0 1.236-.37 1.236-.994v-.906h-.07c-.287.512-.805.792-1.456.792-1.206 0-1.953-.93-1.953-2.347 0-1.44.755-2.385 1.961-2.385.65 0 1.218.322 1.483.832h.074v-.753h.894v4.763c0 1.08-.847 1.765-2.182 1.765-1.181 0-1.944-.529-2.044-1.333M97.439 14.213h2.385c-.02-.74-.473-1.224-1.163-1.224-.69 0-1.171.488-1.222 1.224zm3.279 1.523c-.212.846-.967 1.367-2.047 1.367-1.355 0-2.183-.929-2.183-2.439s.847-2.469 2.18-2.469c1.313 0 2.107.9 2.107 2.384v.324h-3.336v.053c.03.829.512 1.353 1.257 1.353.565 0 .953-.204 1.124-.573h.898zM102.026 12.287h.898v.725h.07c.134-.465.658-.804 1.274-.804.14 0 .317.014.417.039v.922c-.078-.029-.355-.057-.52-.057-.707 0-1.207.447-1.207 1.11v2.79h-.932v-4.725zM109.007 14.648c0 1.002.471 1.604 1.263 1.604.784 0 1.271-.612 1.271-1.6 0-.986-.491-1.606-1.27-1.606-.787 0-1.264.608-1.264 1.602m-.963 0c0-1.494.767-2.438 1.96-2.438.648 0 1.192.308 1.45.828h.069v-2.596h.932v6.569h-.893v-.747h-.074c-.281.516-.832.824-1.483.824-1.202 0-1.961-.944-1.961-2.44M116.752 15.271v-.393l-1.152.073c-.651.043-.947.265-.947.682 0 .424.37.67.875.67.704 0 1.224-.446 1.224-1.032m-3.036.404c0-.85.633-1.34 1.757-1.41l1.28-.073v-.408c0-.5-.331-.782-.968-.782-.52 0-.881.192-.985.527h-.902c.094-.812.859-1.333 1.93-1.333 1.184 0 1.853.59 1.853 1.588v3.228h-.898v-.665h-.073c-.282.473-.8.742-1.42.742-.91 0-1.574-.55-1.574-1.414M119.14 12.287h.897v.751h.07c.23-.526.699-.842 1.41-.842 1.054 0 1.635.634 1.635 1.756v3.06h-.932v-2.825c0-.759-.33-1.136-1.02-1.136s-1.127.46-1.127 1.195v2.765h-.932v-4.724zM126.321 12.196c1.063 0 1.757.496 1.849 1.328h-.896c-.086-.349-.424-.57-.953-.57-.52 0-.916.248-.916.617 0 .282.239.46.75.578l.786.181c.898.208 1.319.594 1.319 1.29 0 .887-.829 1.483-1.957 1.483-1.125 0-1.855-.508-1.939-1.345h.933c.118.364.465.59 1.028.59.582 0 .994-.261.994-.638 0-.282-.222-.464-.696-.578l-.822-.19c-.898-.212-1.314-.616-1.314-1.318 0-.838.767-1.428 1.834-1.428M54.572 33.58L56.523 33.58 56.523 20.554 54.572 20.554zM58.873 25.32L59.938 20.554 61.834 20.554 60.542 25.32zM64.753 28.435h3.936l-1.94-5.715h-.056l-1.94 5.715zm4.452 1.624h-4.967l-1.191 3.522h-2.104l4.703-13.026h2.186l4.703 13.026h-2.138l-1.192-3.522zM80.689 28.832c0-1.922-.994-3.187-2.51-3.187-1.49 0-2.492 1.292-2.492 3.187 0 1.914 1.002 3.196 2.492 3.196 1.516 0 2.51-1.255 2.51-3.196m2.003 0c0 2.953-1.579 4.848-3.962 4.848-1.355 0-2.428-.606-2.99-1.66h-.044v4.703h-1.951v-12.64h1.887v1.58h.037c.54-1.02 1.698-1.679 3.024-1.679 2.41 0 4 1.906 4 4.848M91.143 28.832c0-1.922-.994-3.187-2.51-3.187-1.49 0-2.491 1.292-2.491 3.187 0 1.914 1.002 3.196 2.491 3.196 1.516 0 2.51-1.255 2.51-3.196m2.004 0c0 2.953-1.58 4.848-3.963 4.848-1.355 0-2.428-.606-2.989-1.66h-.045v4.703H84.2v-12.64h1.887v1.58h.037c.54-1.02 1.697-1.679 3.024-1.679 2.41 0 3.999 1.906 3.999 4.848M100.056 29.951c.145 1.292 1.4 2.14 3.114 2.14 1.644 0 2.826-.848 2.826-2.013 0-1.01-.712-1.616-2.402-2.032l-1.687-.407c-2.394-.577-3.504-1.695-3.504-3.511 0-2.249 1.96-3.791 4.74-3.791 2.753 0 4.64 1.542 4.704 3.79h-1.967c-.119-1.299-1.192-2.082-2.763-2.082s-2.647.793-2.647 1.948c0 .92.688 1.463 2.367 1.877l1.435.353c2.673.63 3.783 1.706 3.783 3.612 0 2.436-1.94 3.963-5.028 3.963-2.89 0-4.842-1.49-4.966-3.847h1.995zM112.263 21.835v2.249h1.806v1.542h-1.806v5.236c0 .814.361 1.194 1.155 1.194.2 0 .516-.029.64-.045v1.534c-.216.055-.648.09-1.08.09-1.925 0-2.674-.722-2.674-2.565v-5.444h-1.381v-1.542h1.381v-2.249h1.959zM122.138 28.832c0-2.05-.939-3.26-2.518-3.26-1.582 0-2.52 1.22-2.52 3.26 0 2.06.938 3.259 2.52 3.259 1.579 0 2.518-1.2 2.518-3.259m-7.024 0c0-2.987 1.76-4.866 4.506-4.866 2.752 0 4.505 1.88 4.505 4.866 0 2.998-1.743 4.867-4.505 4.867-2.763 0-4.506-1.87-4.506-4.867M125.731 24.083h1.861v1.616h.045c.298-1.073 1.163-1.716 2.283-1.716.28 0 .515.037.67.073v1.825c-.155-.064-.498-.119-.878-.119-1.255 0-2.03.85-2.03 2.186v5.633h-1.95v-9.498zM132.988 27.957h4.748c-.045-1.453-.976-2.412-2.33-2.412-1.345 0-2.32.975-2.418 2.412zm6.59 2.834c-.263 1.724-1.942 2.907-4.089 2.907-2.765 0-4.479-1.85-4.479-4.821 0-2.98 1.725-4.912 4.395-4.912 2.629 0 4.281 1.806 4.281 4.685v.668h-6.709v.12c0 1.624 1.023 2.69 2.557 2.69 1.081 0 1.93-.515 2.194-1.337h1.85z" mask="url(#prefix__d)"/>
            </g>
        </g>
    </g>
</svg>
