<svg xmlns="http://www.w3.org/2000/svg" width="162" height="47" viewBox="0 0 162 47">
    <g fill="none" fill-rule="evenodd">
        <path fill="#434449" d="M141.265 46.729H20.092C8.994 46.729 0 37.732 0 26.636v-6.544C0 8.996 8.994 0 20.092 0h121.173c11.096 0 20.095 8.996 20.095 20.092v6.544c0 11.096-8.999 20.093-20.095 20.093" transform="translate(.433 .04)"/>
        <path fill="#FEFEFE" d="M123.406 33.376h1.886V20.738h-1.886v12.638zM140.4 25.29l-2.165 5.48h-.063l-2.244-5.48h-2.033l3.367 7.66-1.92 4.258h1.967l5.187-11.918h-2.096zm-10.7 6.652c-.616 0-1.48-.31-1.48-1.073 0-.976 1.074-1.351 2-1.351.83 0 1.22.18 1.725.424-.147 1.171-1.155 2-2.245 2zm.229-6.928c-1.365 0-2.781.602-3.367 1.935l1.675.7c.357-.7 1.024-.927 1.722-.927.978 0 1.97.586 1.986 1.627v.128c-.343-.194-1.074-.488-1.97-.488-1.803 0-3.64.994-3.64 2.847 0 1.69 1.48 2.781 3.137 2.781 1.269 0 1.969-.571 2.407-1.236h.066v.975h1.822v-4.844c0-2.245-1.677-3.498-3.838-3.498zM118.27 26.83h-2.686V22.5h2.686c1.407 0 2.21 1.167 2.21 2.164 0 .98-.803 2.167-2.21 2.167zm-.052-6.09h-4.517v12.636h1.883V28.59h2.634c2.094 0 4.149-1.514 4.149-3.926 0-2.411-2.055-3.923-4.149-3.923zM93.573 31.944c-1.302 0-2.392-1.092-2.392-2.59 0-1.514 1.09-2.621 2.392-2.621 1.287 0 2.297 1.107 2.297 2.622 0 1.497-1.01 2.589-2.297 2.589zM95.74 26h-.066c-.422-.506-1.238-.963-2.264-.963-2.147 0-4.118 1.891-4.118 4.318 0 2.41 1.97 4.282 4.118 4.282 1.026 0 1.842-.455 2.264-.977h.066v.62c0 1.645-.88 2.522-2.296 2.522-1.157 0-1.873-.828-2.167-1.53l-1.644.684c.471 1.14 1.726 2.54 3.811 2.54 2.214 0 4.087-1.302 4.087-4.477V25.3H95.74V26zm3.095 7.376h1.89V20.738h-1.89v12.638zm4.675-4.168c-.051-1.661 1.283-2.508 2.246-2.508.75 0 1.384.375 1.596.912l-3.842 1.596zm5.862-1.435c-.36-.959-1.449-2.736-3.68-2.736-2.217 0-4.055 1.742-4.055 4.301 0 2.41 1.822 4.3 4.264 4.3 1.971 0 3.112-1.206 3.583-1.906l-1.465-.978c-.487.716-1.157 1.19-2.118 1.19-.959 0-1.642-.44-2.083-1.302l5.748-2.38-.194-.489zm-45.804-1.416v1.824h4.366c-.13 1.027-.471 1.775-.993 2.296-.637.636-1.629 1.336-3.373 1.336-2.685 0-4.787-2.167-4.787-4.854 0-2.687 2.102-4.852 4.787-4.852 1.45 0 2.51.57 3.291 1.304l1.286-1.288c-1.092-1.043-2.54-1.84-4.577-1.84-3.68 0-6.775 2.997-6.775 6.676 0 3.683 3.096 6.678 6.775 6.678 1.987 0 3.485-.653 4.66-1.873 1.204-1.204 1.58-2.9 1.58-4.266 0-.423-.035-.814-.098-1.14h-6.142zm11.202 5.587c-1.304 0-2.428-1.075-2.428-2.606 0-1.546 1.124-2.605 2.428-2.605 1.302 0 2.426 1.059 2.426 2.605 0 1.53-1.124 2.606-2.426 2.606zm0-6.907c-2.38 0-4.318 1.81-4.318 4.301 0 2.475 1.939 4.3 4.318 4.3 2.377 0 4.315-1.825 4.315-4.3 0-2.491-1.938-4.301-4.315-4.301zm9.415 6.907c-1.304 0-2.429-1.075-2.429-2.606 0-1.546 1.125-2.605 2.429-2.605 1.301 0 2.424 1.059 2.424 2.605 0 1.53-1.123 2.606-2.424 2.606zm0-6.907c-2.38 0-4.316 1.81-4.316 4.301 0 2.475 1.936 4.3 4.316 4.3 2.377 0 4.315-1.825 4.315-4.3 0-2.491-1.938-4.301-4.315-4.301zM58.344 14.463h1.032c.67 0 1.202-.192 1.594-.578.392-.383.59-.922.59-1.616 0-.687-.198-1.224-.59-1.612-.392-.385-.924-.58-1.594-.58h-1.032v4.386zm-.747.714V9.362h1.78c.89 0 1.607.269 2.144.808.534.538.802 1.238.802 2.1 0 .86-.268 1.56-.802 2.099-.537.539-1.253.808-2.145.808h-1.78zM63.372 15.177L64.119 15.177 64.119 9.362 63.372 9.362zM67.091 15.307c-.422 0-.834-.137-1.238-.414-.406-.276-.67-.664-.792-1.162l.682-.275c.081.32.247.588.498.808.253.218.536.329.85.329.323 0 .602-.086.833-.255.23-.172.343-.402.343-.696 0-.325-.112-.576-.343-.751-.23-.176-.596-.34-1.094-.492-.514-.161-.904-.371-1.169-.628s-.398-.588-.398-.988c0-.416.165-.78.496-1.088.33-.308.761-.463 1.29-.463.495 0 .895.123 1.201.37.31.246.51.516.602.808l-.681.283c-.05-.183-.17-.355-.36-.51-.193-.157-.44-.235-.746-.235-.286 0-.53.078-.733.24-.204.158-.304.358-.304.595 0 .216.092.4.278.549.188.149.463.281.826.402.286.092.525.181.718.267.192.086.388.202.584.345.198.145.347.324.447.537.102.214.15.463.15.742 0 .282-.056.535-.175.755-.114.223-.271.4-.46.529-.195.13-.4.228-.623.298-.222.067-.451.1-.682.1M70.852 12.107h1.25c.315 0 .568-.104.755-.317.19-.21.284-.442.284-.697 0-.255-.094-.488-.284-.698-.187-.212-.44-.319-.755-.319h-1.25v2.03zm0 3.07h-.747V9.363h1.979c.494 0 .922.163 1.28.492.36.326.54.74.54 1.239 0 .497-.18.91-.54 1.238-.358.329-.786.492-1.28.492h-1.232v2.355zM75.889 13.939c.432.436.959.653 1.58.653.624 0 1.15-.217 1.58-.653.431-.435.645-.992.645-1.67 0-.675-.214-1.232-.644-1.668-.431-.437-.957-.653-1.582-.653-.62 0-1.147.216-1.58.653-.428.436-.642.993-.642 1.669 0 .677.214 1.234.643 1.669m3.711.487c-.57.588-1.28.88-2.132.88-.849 0-1.559-.292-2.13-.88-.571-.587-.855-1.305-.855-2.156 0-.85.284-1.57.855-2.157.571-.588 1.281-.882 2.13-.882.845 0 1.555.296 2.128.886.576.592.861 1.308.861 2.153 0 .85-.283 1.569-.857 2.156M81.506 15.177L81.506 9.362 82.416 9.362 85.242 13.886 85.275 13.886 85.242 12.765 85.242 9.362 85.989 9.362 85.989 15.177 85.21 15.177 82.253 10.435 82.222 10.435 82.253 11.555 82.253 15.177zM87.323 15.177L88.068 15.177 88.068 9.362 87.323 9.362zM90.148 14.463h1.502c.288 0 .52-.1.698-.3.18-.202.27-.42.27-.66 0-.236-.093-.454-.278-.652-.184-.198-.425-.298-.723-.298h-1.469v1.91zm0-2.608h1.355c.284 0 .508-.092.68-.28.169-.187.255-.391.255-.614 0-.22-.082-.424-.247-.608-.166-.183-.384-.275-.653-.275h-1.39v1.777zm-.747 3.322V9.362h2.102c.457 0 .849.15 1.182.45.334.303.5.68.5 1.133 0 .278-.072.52-.215.733-.145.21-.334.369-.571.48v.03c.283.098.52.267.704.504.186.238.277.514.277.828 0 .476-.175.871-.524 1.186-.349.314-.761.471-1.239.471h-2.216zM94.386 15.177L94.386 9.362 95.133 9.362 95.133 14.463 97.653 14.463 97.653 15.177zM101.99 10.077L99.342 10.077 99.342 11.92 101.729 11.92 101.729 12.619 99.342 12.619 99.342 14.462 101.99 14.462 101.99 15.178 98.595 15.178 98.595 9.363 101.99 9.363zM106.506 15.307c-.423 0-.835-.137-1.239-.414-.404-.276-.669-.664-.791-1.162l.681-.275c.082.32.247.588.5.808.251.218.535.329.849.329.324 0 .602-.086.832-.255.23-.172.345-.402.345-.696 0-.325-.114-.576-.345-.751-.23-.176-.595-.34-1.091-.492-.517-.161-.906-.371-1.172-.628-.265-.257-.397-.588-.397-.988 0-.416.167-.78.495-1.088.33-.308.761-.463 1.29-.463.496 0 .896.123 1.202.37.31.246.51.516.602.808l-.682.283c-.049-.183-.17-.355-.359-.51-.194-.157-.44-.235-.747-.235-.285 0-.53.078-.732.24-.204.158-.304.358-.304.595 0 .216.092.4.277.549.188.149.463.281.827.402.285.092.524.181.718.267.192.086.388.202.583.345.198.145.347.324.447.537.102.214.151.463.151.742 0 .282-.057.535-.175.755-.114.223-.272.4-.461.529-.194.13-.4.228-.623.298-.22.067-.45.1-.681.1M111.541 15.307c-.64 0-1.157-.212-1.557-.633-.397-.422-.597-.975-.597-1.657V9.363h.748v3.687c0 .46.12.832.362 1.116.238.286.587.427 1.044.427.455 0 .802-.141 1.043-.427.24-.284.36-.657.36-1.116V9.363h.75v3.654c0 .688-.196 1.24-.582 1.661-.387.419-.912.629-1.57.629M115.642 12.124h1.202c.296 0 .553-.098.767-.292.212-.196.32-.44.32-.739 0-.255-.093-.487-.283-.7-.188-.21-.441-.316-.755-.316h-1.251v2.047zm-.747 3.054V9.363h1.981c.494 0 .92.163 1.278.492.361.326.54.738.54 1.238 0 .406-.13.765-.397 1.076-.266.312-.594.508-.992.59l-.014.022 1.63 2.365v.032h-.884l-1.567-2.357h-.828v2.357h-.747zM17.951 8.902c-.339.357-.539.912-.539 1.63v25.664c0 .72.2 1.273.539 1.632l.086.084 14.377-14.378v-.34L18.037 8.817l-.086.085z" transform="translate(.433 .04)"/>
        <path fill="#FEFEFE" d="M37.204 28.329l-4.791-4.795v-.339l4.793-4.793.108.061 5.679 3.226c1.622.922 1.622 2.43 0 3.353l-5.68 3.226-.11.06z" transform="translate(.433 .04)"/>
        <path fill="#FEFEFE" d="M37.313 28.266l-4.899-4.901-14.463 14.463c.533.565 1.416.636 2.41.07l16.952-9.632M37.313 18.463L20.361 8.83c-.994-.565-1.877-.494-2.41.072l14.463 14.462 4.9-4.9z" transform="translate(.433 .04)"/>
        <path fill="#FEFEFE" d="M37.206 28.158l-16.844 9.57c-.943.537-1.786.5-2.326.012l-.086.088.086.084c.54.487 1.383.522 2.326-.014l16.952-9.631-.108-.109z" transform="translate(.433 .04)"/>
        <path fill="#FEFEFE" d="M17.951 37.658c-.339-.357-.539-.912-.539-1.63v.17c0 .717.2 1.272.539 1.63l.086-.086-.086-.084zM42.992 24.87l-5.786 3.288.108.108 5.678-3.226c.808-.461 1.216-1.067 1.216-1.675-.069.548-.481 1.087-1.216 1.505" transform="translate(.433 .04)"/>
        <path fill="#FEFEFE" d="M42.993 21.858c.734.418 1.146.957 1.216 1.508 0-.608-.406-1.216-1.216-1.677L20.362 8.832c-1.622-.923-2.948-.157-2.948 1.701v.17c0-1.859 1.326-2.624 2.948-1.702l22.63 12.857z" transform="translate(.433 .04)"/>
    </g>
</svg>
