<svg xmlns="http://www.w3.org/2000/svg" width="110" height="123" viewBox="0 0 110 123">
    <g fill="#397EFF">
        <path d="M74.642 20.734c-1.62-1.62-4.244-1.62-5.864-.001l-3.443 3.443c-5.823-4.127-12.619-6.67-19.72-7.382v-8.5h4.146c2.29 0 4.147-1.857 4.147-4.147S52.05 0 49.76 0H33.174c-2.29 0-4.147 1.857-4.147 4.147s1.857 4.147 4.147 4.147h4.147v8.5c-7.102.711-13.898 3.255-19.721 7.382l-3.442-3.443c-1.62-1.619-4.245-1.619-5.864 0-1.62 1.62-1.62 4.246 0 5.866l3.027 3.026c-15.514 16.427-15.023 42.25 1.105 58.073 16.128 15.824 41.955 15.824 58.083 0s16.62-41.646 1.106-58.073L74.64 26.6c1.62-1.62 1.62-4.245 0-5.865zM8.294 58.054c0-18.32 14.852-33.173 33.174-33.173 18.321 0 33.174 14.852 33.174 33.174-.02 18.313-14.861 33.153-33.174 33.174-18.322 0-33.174-14.853-33.174-33.174z" transform="translate(14)"/>
        <path d="M41.468 33.174v24.88H16.587c0 13.742 11.14 24.881 24.88 24.881 13.742 0 24.881-11.14 24.881-24.88 0-13.742-11.14-24.88-24.88-24.88z" transform="translate(14)"/>
    </g>
</svg>
