<svg xmlns="http://www.w3.org/2000/svg" width="110" height="123" viewBox="0 0 110 123">
    <g fill="#397EFF">
        <path d="M14.972 47.344c2.382 0 4.538-.958 6.131-2.496l8.74 4.379c-.044.357-.108.707-.108 1.076 0 4.894 3.973 8.877 8.857 8.877 4.884 0 8.857-3.983 8.857-8.877 0-1.366-.335-2.646-.888-3.803l11.856-11.882c1.155.554 2.43.89 3.794.89 4.884 0 8.857-3.982 8.857-8.877 0-.922-.18-1.793-.442-2.63l10.301-7.74c1.406.94 3.09 1.493 4.903 1.493 4.884 0 8.858-3.982 8.858-8.877C94.688 3.982 90.713 0 85.83 0s-8.857 3.982-8.857 8.877c0 .922.18 1.793.442 2.63l-10.301 7.74c-1.405-.94-3.09-1.493-4.903-1.493-4.884 0-8.857 3.982-8.857 8.877 0 1.366.335 2.645.888 3.803L42.386 42.316c-1.155-.554-2.431-.89-3.794-.89-2.382 0-4.538.958-6.131 2.496l-8.74-4.38c.044-.356.109-.707.109-1.075 0-4.895-3.974-8.877-8.858-8.877-4.883 0-8.857 3.982-8.857 8.877 0 4.894 3.974 8.877 8.857 8.877z" transform="translate(5)"/>
        <path d="M97.85 95.082H94.7V32.549c0-1.635-1.322-2.96-2.954-2.96H79.933c-1.632 0-2.953 1.325-2.953 2.96v62.533h-5.906v-44.78c0-1.634-1.321-2.958-2.953-2.958H56.308c-1.632 0-2.953 1.324-2.953 2.959v44.779h-5.907V73.975c0-1.636-1.321-2.96-2.953-2.96H32.682c-1.632 0-2.953 1.324-2.953 2.96v21.107h-5.906V62.139c0-1.635-1.322-2.96-2.954-2.96H9.056c-1.631 0-2.953 1.325-2.953 2.96v32.943h-3.15C1.321 95.082 0 96.406 0 98.041S1.321 101 2.953 101H97.85c1.631 0 2.953-1.324 2.953-2.959s-1.322-2.959-2.953-2.959z" transform="translate(5)"/>
    </g>
</svg>
