<svg xmlns="http://www.w3.org/2000/svg" width="110" height="123" viewBox="0 0 110 123">
    <g fill="none">
        <g>
            <path fill="#397EFF" d="M24.304.4c-2.158 0-3.908 1.75-3.908 3.907v3.908H4.77c-2.158 0-3.907 1.75-3.907 3.908v78.154c0 2.158 1.75 3.907 3.907 3.907h35.486c1.907 13.22 13.296 23.447 27.03 23.447 15.06 0 27.361-12.286 27.361-27.347 0-13.729-10.23-25.133-23.446-27.048V12.123c0-2.158-1.75-3.908-3.908-3.908H51.665V4.307C51.665 2.15 49.915.4 47.758.4H24.304zm3.911 7.815H43.85v7.82H28.215v-7.82z" transform="translate(8 5)"/>
            <path fill="#FFF" d="M20.397 31.668L20.397 39.471 51.666 39.471 51.666 31.668zM20.397 47.288L20.397 55.106 51.666 55.106 51.666 47.288zM20.397 62.923L20.397 70.74 36.032 70.74 36.032 62.923z" transform="translate(8 5)"/>
        </g>
        <path fill="#397EFF" stroke="#FFF" stroke-width="6" d="M75.285 69.742c-7.072 0-13.454 2.846-18.068 7.462-4.615 4.618-7.46 11.006-7.46 18.08 0 7.073 2.844 13.456 7.458 18.07 4.614 4.615 10.997 7.457 18.07 7.457 7.075 0 13.464-2.844 18.082-7.46 4.617-4.614 7.464-10.996 7.464-18.067 0-7.072-2.848-13.459-7.466-18.077-4.619-4.618-11.007-7.465-18.08-7.465z"/>
        <path fill="#FFF" d="M84.491 86.002c-1.013.031-1.975.455-2.682 1.183l-8.957 8.971-3.087-3.1c-.972-1.043-2.436-1.473-3.818-1.123-1.382.351-2.464 1.427-2.822 2.807-.358 1.38.065 2.846 1.102 3.825l5.856 5.884c.733.737 1.73 1.15 2.769 1.15 1.04 0 2.036-.413 2.77-1.15l11.725-11.74c1.157-1.126 1.503-2.847.87-4.332-.632-1.485-2.112-2.429-3.726-2.375z"/>
    </g>
</svg>
