<svg xmlns="http://www.w3.org/2000/svg" xmlns:xlink="http://www.w3.org/1999/xlink" width="102" height="40" viewBox="0 0 102 40">
    <defs>
        <path id="prefix__a" d="M0.079 0.101L32.92 0.101 32.92 23.909 0.079 23.909z"/>
        <path id="prefix__c" d="M0.179 0.089L3.693 0.089 3.693 3.176 0.179 3.176z"/>
        <path id="prefix__e" d="M0.06 0.014L3.646 0.014 3.646 0.25 0.06 0.25z"/>
    </defs>
    <g fill="none" fill-rule="evenodd">
        <g transform="translate(3.485 .117)">
            <mask id="prefix__b" fill="#fff">
                <use xlink:href="#prefix__a"/>
            </mask>
            <path fill="#397EFF" d="M10.203 23.896C-3.308 22.328-3.383 1.666 10.505.138 17.6.058 24.713.134 31.813.132c2.974.827-.89 3.175-1.745 4.254-4.138 4.056-8.252 8.238-12.3 12.308-2.199 2.233-4.426 4.44-6.656 6.644-.25.247-.437.649-.909.558" mask="url(#prefix__b)"/>
        </g>
        <path fill="#397EFF" fill-opacity=".6" d="M13.688 24.013c3.087-2.697 5.64-5.968 8.867-8.498 4.81.75 8.153 3.41 9.745 7.95 2.967 7.406-3.202 16.059-11.159 15.847-6.576.041-13.091-.168-19.644-.17-4.415-.203 2.261-4.593 3.086-5.866 2.959-2.776 5.722-5.733 8.628-8.559.196-.204.502-.346.477-.704"/>
        <path fill="#030668" stroke="#030668" stroke-width=".5" d="M55.373 12.386c-.327 0-.653-.008-.98.002-.501.013-.826-.194-.954-.695-.573-2.227-4.261-2.315-5.44-1.075-.883.93-.664 2.52.492 3.226 1.008.615 2.152.897 3.277 1.209.97.269 1.919.588 2.86.948 4.227 1.614 3.628 7.08 1.047 8.966-2.717 1.986-7.849 1.956-10.43-.19-1.071-.89-1.697-2.023-1.827-3.422-.054-.59.181-.869.786-.84.352.017.71.036 1.06-.003.96-.107 1.678.091 2.009 1.152.169.544.685.926 1.219 1.148 1.448.6 2.925.594 4.36-.03.776-.338 1.191-.99 1.228-1.866.035-.862-.383-1.444-1.1-1.846-1.101-.617-2.32-.917-3.518-1.268-.993-.29-1.953-.65-2.895-1.083-3.626-1.669-3.353-6.715-.786-8.674 2.692-2.054 7.386-1.857 9.808.511.756.739 1.264 1.623 1.488 2.66.2.926.001 1.164-.97 1.17h-.734M84.954 13.206c2.068.626 2.953 2.287 3.293 4.27.272 1.587.285 3.196-.07 4.773-.416 1.852-1.366 3.345-3.297 3.9-1.997.576-3.886.405-5.421-1.21-.032-.034-.091-.041-.237-.104 0 2.331-.023 4.58.012 6.829.012.742-.238 1.052-.99.993-.514-.04-1.034-.027-1.55-.003-.64.03-.868-.275-.867-.884.007-5.916.008-11.832-.001-17.747 0-.627.275-.898.888-.876.326.012.653.002.98.002 1.335 0 1.335 0 1.403 1.335.05.005.126.032.147.009 1.615-1.707 3.6-1.925 5.71-1.287zm-2.666 2.422c-1.453-.067-2.422.55-2.828 1.933-.404 1.374-.4 2.794-.045 4.173.347 1.346 1.37 2.005 2.815 1.968 1.353-.034 2.176-.711 2.548-2.074.116-.424.153-.854.173-1.285l.026-.648c-.028-.649-.019-1.298-.186-1.935-.362-1.384-1.16-2.07-2.503-2.132zM69.193 24.658c-1.431 1.591-3.158 1.98-5.053 1.688-2.124-.326-3.515-1.809-3.885-4.036-.286-1.724-.097-3.464-.137-5.196-.024-1.03.015-2.06-.01-3.09-.017-.633.268-.89.878-.877.543.012 1.088.022 1.631-.003.689-.032.978.244.967.956-.03 2.005-.012 4.011-.009 6.017.001.352.003.706.04 1.056.182 1.773 1.05 2.568 2.743 2.53 1.584-.036 2.666-1.085 2.706-2.756.05-2.14.017-4.283.019-6.424.001-1.37.004-1.375 1.347-1.374 2.408.003 2.075-.186 2.084 2.09.012 3.254.003 6.507.002 9.76 0 1.138-.032 1.167-1.209 1.169h-.652c-1.37 0-1.37 0-1.462-1.51M94.533 16.495c0 2.874-.018 5.748.012 8.621.008.758-.22 1.081-1.022 1.064-2.63-.057-2.291.31-2.297-2.3-.012-5.287-.004-10.574-.003-15.86 0-1.217.042-1.261 1.216-1.26 2.364.001 2.087-.206 2.092 2.089.007 2.548.002 5.097.002 7.646M101.2 19.633c0 1.868-.015 3.736.008 5.604.009.697-.27.974-.967.964-2.757-.038-2.385.299-2.395-2.368-.012-3.275-.004-6.552-.002-9.828 0-.975.097-1.077 1.072-1.072 2.526.011 2.28-.299 2.284 2.233.002 1.489 0 2.978 0 4.467"/>
        <g transform="translate(97.579 6.65)">
            <mask id="prefix__d" fill="#fff">
                <use xlink:href="#prefix__c"/>
            </mask>
            <path fill="#030668" d="M1.816 3.164c-1.638 0-1.638 0-1.637-1.634C.179.093.179.092 1.614.093c2.39.002 2.02-.196 2.078 2.08.018.739-.246 1.056-.984.995-.295-.024-.594-.004-.892-.004" mask="url(#prefix__d)"/>
        </g>
        <path fill="#9CCFFD" d="M.029 38.634c2.294.785 4.819.14 7.211.34.259 0 .548-.09.758.16-1.322-.061-7.718.629-7.97-.5"/>
        <path fill="#A7D3F8" d="M7.845 30.037c-.92 1.248-1.985 2.35-3.262 3.239 1.017-1.15 2.098-2.236 3.262-3.239"/>
        <path fill="#93C0EB" d="M4.08 39.134h3.918c0 .047 0 .095-.002.143l-3.915.001c-.095-.04-.062-.13-.002-.144"/>
        <g transform="translate(.436 39.105)">
            <mask id="prefix__f" fill="#fff">
                <use xlink:href="#prefix__e"/>
            </mask>
            <path fill="#9EC6ED" d="M3.644.033c0 .056 0 .111.002.167C2.45.146 1.242.436.06.027l3.584.006" mask="url(#prefix__f)"/>
        </g>
        <path fill="#A7D3F8" d="M9.13 28.843c-.33.495-.688.959-1.272 1.181.351-.472.717-.927 1.271-1.181"/>
    </g>
</svg>
